<svg width="28" height="28" viewBox="0 0 28 28" fill="none" xmlns="http://www.w3.org/2000/svg">
<g id="ic:round-plus">
<path id="Vector" d="M20.9987 15.1644H15.1654V20.9977C15.1654 21.3071 15.0424 21.6039 14.8237 21.8227C14.6049 22.0415 14.3081 22.1644 13.9987 22.1644C13.6893 22.1644 13.3925 22.0415 13.1737 21.8227C12.9549 21.6039 12.832 21.3071 12.832 20.9977V15.1644H6.9987C6.68928 15.1644 6.39253 15.0415 6.17374 14.8227C5.95495 14.6039 5.83203 14.3071 5.83203 13.9977C5.83203 13.6883 5.95495 13.3916 6.17374 13.1728C6.39253 12.954 6.68928 12.8311 6.9987 12.8311H12.832V6.99772C12.832 6.6883 12.9549 6.39156 13.1737 6.17276C13.3925 5.95397 13.6893 5.83105 13.9987 5.83105C14.3081 5.83105 14.6049 5.95397 14.8237 6.17276C15.0424 6.39156 15.1654 6.6883 15.1654 6.99772V12.8311H20.9987C21.3081 12.8311 21.6049 12.954 21.8237 13.1728C22.0424 13.3916 22.1654 13.6883 22.1654 13.9977C22.1654 14.3071 22.0424 14.6039 21.8237 14.8227C21.6049 15.0415 21.3081 15.1644 20.9987 15.1644Z" fill="black"/>
</g>
</svg>
